<?xml version="1.0" standalone="no"?>
<!DOCTYPE svg PUBLIC "-//W3C//DTD SVG 20010904//EN"
 "http://www.w3.org/TR/2001/REC-SVG-20010904/DTD/svg10.dtd">
<svg version="1.0" xmlns="http://www.w3.org/2000/svg"
 width="700.000000pt" height="700.000000pt" viewBox="0 0 700.000000 700.000000"
 preserveAspectRatio="xMidYMid meet">
<metadata>
Created by potrace 1.14, written by Peter Selinger 2001-2017
</metadata>
<g transform="translate(0.000000,700.000000) scale(0.100000,-0.100000)"
fill="#000000" stroke="none">
<path d="M3165 6989 c-1119 -114 -2105 -742 -2684 -1711 -78 -131 -213 -416
-269 -568 -87 -237 -149 -486 -189 -765 -26 -183 -26 -714 0 -890 62 -427 157
-735 337 -1100 114 -230 194 -363 335 -550 206 -274 430 -499 702 -704 194
-146 324 -225 558 -341 366 -181 662 -271 1100 -337 173 -26 717 -26 890 0
438 66 736 157 1100 337 232 115 364 196 550 335 273 204 506 437 710 710 139
186 220 318 335 550 181 366 276 677 337 1106 26 178 25 712 0 884 -65 437
-156 734 -337 1100 -115 233 -195 363 -341 558 -567 755 -1388 1236 -2344
1373 -131 18 -652 27 -790 13z m785 -468 c535 -83 1037 -302 1460 -637 110
-87 387 -364 474 -474 371 -468 596 -1022 656 -1619 13 -133 13 -449 0 -582
-60 -597 -286 -1152 -656 -1619 -95 -120 -360 -382 -483 -479 -468 -370 -1018
-592 -1610 -651 -133 -13 -450 -13 -582 0 -596 60 -1143 281 -1610 651 -133
105 -383 355 -488 488 -336 424 -548 912 -633 1456 -19 122 -22 180 -22 445 0
265 3 323 22 445 101 648 378 1210 822 1669 521 540 1170 852 1935 930 22 2
162 3 310 1 213 -2 299 -7 405 -24z"/>
<path d="M3377 5693 c-4 -3 -7 -107 -7 -230 l0 -223 120 0 120 0 0 230 0 230
-113 0 c-63 0 -117 -3 -120 -7z"/>
<path d="M2030 5175 l0 -235 120 0 120 0 -2 233 -3 232 -117 3 -118 3 0 -236z"/>
<path d="M4720 5175 l0 -236 118 3 117 3 0 230 0 230 -117 3 -118 3 0 -236z"/>
<path d="M2432 5050 c-56 -34 -72 -73 -72 -175 0 -105 18 -147 75 -171 48 -20
133 -18 174 4 53 29 71 72 71 172 0 100 -18 143 -71 172 -47 25 -134 24 -177
-2z"/>
<path d="M3405 5052 c-62 -39 -70 -56 -73 -157 -4 -104 9 -145 56 -180 36 -26
135 -33 185 -12 58 25 77 66 77 170 0 95 -10 125 -55 167 -36 34 -145 41 -190
12z"/>
<path d="M4373 5056 c-56 -25 -73 -67 -73 -176 0 -110 18 -152 75 -176 50 -21
133 -18 173 6 55 34 72 73 72 168 0 89 -10 121 -55 162 -21 20 -38 25 -93 27
-43 2 -79 -2 -99 -11z"/>
<path d="M2704 4807 c-2 -7 -3 -111 -2 -232 l3 -220 118 -3 117 -3 0 236 0
235 -115 0 c-84 0 -117 -3 -121 -13z"/>
<path d="M4073 4765 c-18 -8 -42 -29 -53 -47 -20 -32 -20 -49 -20 -805 l0
-773 93 0 c68 0 101 -5 127 -18 93 -46 88 -189 -7 -229 -30 -12 -50 -13 -127
-2 l-91 12 -71 71 c-79 80 -175 205 -234 307 l-40 67 0 522 0 522 -39 39 c-38
38 -40 39 -112 39 -57 0 -82 -5 -107 -20 -62 -38 -62 -37 -62 -592 l0 -503
-51 -85 c-56 -92 -145 -210 -232 -306 l-55 -60 -96 -13 c-83 -11 -99 -10 -129
4 -42 20 -67 62 -67 115 0 96 49 130 189 130 l92 0 -3 478 c-3 449 -4 479 -22
505 -28 42 -66 57 -141 57 -75 0 -113 -16 -139 -60 -14 -24 -16 -70 -16 -353
l0 -324 -59 -37 c-70 -43 -128 -105 -167 -181 -29 -55 -29 -55 -76 -55 l-48 0
0 160 c0 176 -8 211 -55 248 -23 18 -41 22 -108 22 -79 0 -80 0 -118 -39 l-39
-39 0 -678 c0 -374 3 -736 7 -806 l6 -128 384 0 c341 0 383 -2 383 -16 0 -33
62 -162 108 -224 86 -115 191 -181 390 -243 142 -44 182 -70 182 -115 0 -29 2
-31 19 -20 15 9 23 9 35 -1 14 -12 16 -10 16 17 0 51 48 80 215 127 229 66
389 211 456 412 l21 63 389 0 389 0 3 1178 c3 1761 5 1594 -16 1625 -30 45
-75 67 -140 67 -65 0 -105 -17 -136 -56 -21 -27 -21 -31 -21 -790 l0 -764 -53
0 -52 0 -23 50 c-31 67 -120 161 -185 195 l-53 28 4 616 c3 581 2 618 -15 650
-10 19 -34 43 -53 53 -42 22 -131 23 -177 3z m-548 -1826 c17 -23 62 -72 102
-109 l71 -68 -43 -31 c-24 -17 -72 -62 -106 -99 l-63 -69 -38 48 c-21 27 -67
72 -103 100 l-65 52 73 71 c40 39 85 88 101 109 16 20 31 37 35 37 3 0 20 -19
36 -41z m-1110 -96 c26 -106 157 -231 284 -270 l53 -17 -5 -66 c-4 -36 -9
-113 -13 -172 l-7 -108 -208 0 -209 0 0 330 0 330 49 0 c45 0 49 -2 56 -27z
m2265 -303 l0 -330 -218 0 -219 0 -6 153 c-4 83 -10 161 -13 173 -5 18 0 22
29 27 110 18 246 129 301 245 l30 62 48 0 48 0 0 -330z m-1547 -45 c78 -60
166 -180 191 -262 l7 -23 -140 0 -141 0 0 103 c0 102 16 217 30 217 4 0 28
-16 53 -35z m786 -2 c6 -21 14 -93 17 -160 l7 -123 -146 0 -147 0 10 24 c29
78 71 139 145 214 45 45 87 82 93 82 6 0 16 -17 21 -37z m-579 -669 c0 -98 7
-95 -102 -47 -56 25 -90 54 -123 106 l-17 27 121 0 121 0 0 -86z m526 57 c-29
-56 -114 -114 -198 -135 l-28 -6 0 85 0 85 120 0 121 0 -15 -29z"/>
<path d="M2053 4750 c-50 -30 -63 -66 -63 -172 0 -74 4 -99 19 -124 27 -44 94
-69 162 -61 103 12 139 61 139 185 0 99 -16 144 -62 172 -45 28 -150 28 -195
0z"/>
<path d="M2030 4000 l0 -231 118 3 117 3 3 228 2 227 -120 0 -120 0 0 -230z"/>
</g>
</svg>
