<?xml version="1.0" encoding="UTF-8"?>
<!DOCTYPE svg PUBLIC "-//W3C//DTD SVG 1.1//EN" "http://www.w3.org/Graphics/SVG/1.1/DTD/svg11.dtd">
<!-- Creator: CorelDRAW 2019 (64-Bit) -->
<svg xmlns="http://www.w3.org/2000/svg" xml:space="preserve" width="70.2993mm" height="31.5915mm" version="1.1" style="shape-rendering:geometricPrecision; text-rendering:geometricPrecision; image-rendering:optimizeQuality; fill-rule:evenodd; clip-rule:evenodd"
viewBox="0 0 2296.66 1032.09"
 xmlns:xlink="http://www.w3.org/1999/xlink"
 xmlns:xodm="http://www.corel.com/coreldraw/odm/2003">
 <defs>
  <style type="text/css">
   <![CDATA[
    .fil1 {fill:#FEFEFE}
    .fil0 {fill:#223342}
    .fil3 {fill:#223342}
    .fil2 {fill:#F9B00C}
    .fil4 {fill:#223342;fill-rule:nonzero}
    .fil5 {fill:#F9B00C;fill-rule:nonzero}
   ]]>
  </style>
 </defs>
 <g id="Слой_x0020_1">
  <metadata id="CorelCorpID_0Corel-Layer"/>
  <path class="fil0" d="M500.77 11.43l1295.13 0c275.42,0 500.77,225.34 500.77,500.77l0 0c0,275.42 -225.34,500.77 -500.77,500.77l-1295.13 0c-275.42,0 -500.77,-225.34 -500.77,-500.77l0 -0c0,-275.42 225.34,-500.77 500.77,-500.77z"/>
  <polygon class="fil1" points="1225.75,0 1794.66,0 1794.66,1032.09 1225.75,1032.09 "/>
  <path class="fil1" d="M512.18 73.65l1272.3 0c241.2,0 438.55,197.35 438.55,438.55l0 0c0,241.2 -197.35,438.55 -438.55,438.55l-1272.3 0c-241.2,0 -438.55,-197.35 -438.55,-438.55l0 0c0,-241.2 197.35,-438.55 438.55,-438.55z"/>
  <path class="fil0" d="M2286.08 512.95c0,-276.07 -223.8,-500.01 -500.01,-500.01 -276.07,0 -500.01,223.8 -500.01,500.01 0,276.07 223.8,500.01 500.01,500.01 276.07,0 500.01,-223.8 500.01,-500.01z"/>
  <polygon class="fil2" points="1702.46,617.97 1723.47,617.97 1723.47,743.02 1702.46,743.02 "/>
  <polygon class="fil2" points="1998.18,617.97 1977.16,617.97 1977.16,743.02 1998.18,743.02 "/>
  <polygon class="fil2" points="1589.88,254.24 1614.82,254.24 1614.82,311.28 1589.88,311.28 "/>
  <path class="fil2" d="M1597.84 345.12l8.89 0c7.28,0 13.16,5.89 13.16,13.16l0 16.86c0,7.28 -6,13.16 -13.16,13.16l-8.89 0c-7.28,0 -13.16,-6 -13.16,-13.16l0 -16.86c0,-7.28 5.89,-13.16 13.16,-13.16z"/>
  <polygon class="fil2" points="1589.88,422.02 1614.82,422.02 1614.82,479.18 1589.88,479.18 "/>
  <path class="fil2" d="M1584.68 746.6l35.33 0 0 -220.43c0,-7.28 -6,-13.16 -13.16,-13.16l-8.89 0c-7.28,0 -13.16,5.89 -13.16,13.16l0 220.43 0 0 -0.11 0z"/>
  <path class="fil2" d="M1650.96 302.97l8.89 0c7.28,0 13.16,5.89 13.16,13.16l0 16.86c0,7.28 -6,13.16 -13.16,13.16l-8.89 0c-7.28,0 -13.16,-6 -13.16,-13.16l0 -16.86c0,-7.28 5.89,-13.16 13.16,-13.16z"/>
  <path class="fil2" d="M1681.1 569.59l35.33 0 0 -127.02c0,-7.28 -6,-13.16 -13.16,-13.16l-8.89 0c-7.28,0 -13.16,5.89 -13.16,13.16l0 127.02 0 0 -0.11 0z"/>
  <polygon class="fil2" points="1686.29,338.3 1711.35,338.3 1711.35,395.46 1686.29,395.46 "/>
  <path class="fil2" d="M1698.88 531.25c0,12.7 0,25.4 0,38.11 -29.56,0 -31.06,45.5 0,45.72l0 38.45c-32.45,0 -58.66,-27.37 -58.66,-61.08 0,-33.72 26.21,-61.08 58.66,-61.08l0 -0.12z"/>
  <polygon class="fil2" points="1614.12,574.67 1649.57,574.67 1649.57,607.69 1614.12,607.69 "/>
  <polygon class="fil2" points="1794.26,746.6 1794.26,711.27 1602.35,711.27 1602.35,746.6 "/>
  <path class="fil2" d="M1695.99 640.14c-7.74,68.01 -18.59,151.61 64.2,174.47 27.14,7.5 26.79,10.85 34.41,17.78l0 -165.7c-8.43,-14.89 -21.48,-27.48 -38.57,-37.87 15.13,-12.24 28.41,-26.1 38.57,-41.92 0,-35.91 3.23,-71.94 -0.46,-107.62 0,-7.74 -2.66,29.21 -21.02,67.89 -15.01,27.48 -32.79,47.46 -51.27,65.12l10.05 42.84c12.93,3.23 40.42,29.33 44.23,56.23l0 68.7c-29.33,-7.74 -47.69,-13.16 -50.46,-68.7 -1.73,-35.33 1.27,-43.53 6.24,-56.23l-10.05 -42.84 -22.98 2.89 -2.89 25.06 0 0 0 -0.11z"/>
  <polygon class="fil2" points="1999.44,254.24 1974.39,254.24 1974.39,311.28 1999.44,311.28 "/>
  <path class="fil2" d="M2004.64 746.6l-35.33 0 0 -388.21c0,-7.28 5.89,-13.16 13.16,-13.16l8.89 0c7.28,0 13.16,5.89 13.16,13.16l0 388.21 0 0 0.11 0z"/>
  <path class="fil2" d="M1938.25 302.97l-8.89 0c-7.28,0 -13.16,6 -13.16,13.16l0 16.86c0,7.28 6,13.16 13.16,13.16l8.89 0c7.28,0 13.16,-5.89 13.16,-13.16l0 -16.86c0,-7.28 -6,-13.16 -13.16,-13.16z"/>
  <path class="fil2" d="M1908.11 569.59l-35.33 0 0 -211.19c0,-7.28 6,-13.16 13.16,-13.16l8.89 0c7.28,0 13.16,5.89 13.16,13.16l0 211.19 0.11 0z"/>
  <path class="fil2" d="M1890.44 531.25c0,12.7 0,25.4 0,38.11 29.56,0 31.06,45.5 0,45.72l0 38.45c32.45,0 58.66,-27.37 58.66,-61.08 0,-33.72 -26.21,-61.08 -58.66,-61.08l0 0 0 -0.12z"/>
  <polygon class="fil2" points="1975.2,574.67 1939.75,574.67 1939.75,607.69 1975.2,607.69 "/>
  <polygon class="fil2" points="1795.06,746.6 1795.06,711.27 1986.97,711.27 1986.97,746.6 "/>
  <path class="fil2" d="M1893.33 640.14c7.74,68.01 18.59,151.61 -64.2,174.47 -27.14,7.5 -26.79,10.85 -34.41,17.78l0 -165.7c8.43,-14.89 21.48,-27.48 38.57,-37.87 -15.13,-12.24 -28.41,-26.1 -38.57,-41.92 0,-35.91 -3.23,-71.94 0.46,-107.62 0,-7.74 2.66,29.21 21.02,67.89 15.01,27.48 32.79,47.46 51.27,65.12l-10.05 42.84c-12.93,3.23 -40.42,29.33 -44.23,56.23l0 68.59c29.33,-7.74 47.69,-13.16 50.46,-68.59 1.73,-35.33 -1.27,-43.53 -6.24,-56.23l10.05 -42.84 22.98 2.89 2.89 25.06 0 -0.11z"/>
  <path class="fil2" d="M1812.27 563.58l-35.33 0 0 -162c0,-7.28 6,-13.16 13.16,-13.16l8.89 0c7.28,0 13.16,5.89 13.16,13.16l0 162 0 0 0.11 0z"/>
  <path class="fil2" d="M1799.11 302.86l-8.89 0c-7.28,0 -13.16,6 -13.16,13.16l0 16.86c0,7.28 5.89,13.16 13.16,13.16l8.89 0c7.28,0 13.16,-5.89 13.16,-13.16l0 -16.86c0,-7.28 -5.89,-13.16 -13.16,-13.16z"/>
  <polygon class="fil2" points="1782.13,212.56 1807.19,212.56 1807.19,269.6 1782.13,269.6 "/>
  <path class="fil3" d="M1699.19 573.74c8.31,0 15.05,8.38 15.05,18.73 0,10.34 -6.74,18.73 -15.05,18.73 -8.31,0 -15.05,-8.38 -15.05,-18.73 0,-10.35 6.74,-18.73 15.05,-18.73z"/>
  <path class="fil3" d="M1891.03 573.57c8.31,0 15.05,8.38 15.05,18.73 0,10.34 -6.74,18.73 -15.05,18.73 -8.31,0 -15.05,-8.38 -15.05,-18.73 0,-10.35 6.74,-18.73 15.05,-18.73z"/>
  <path class="fil4" d="M511.39 255.6l-39.58 34.89c-13.87,-19.27 -27.99,-28.91 -42.38,-28.91 -7.03,0 -12.76,1.89 -17.19,5.6 -4.49,3.78 -6.7,8.01 -6.7,12.7 0,4.69 1.56,9.18 4.75,13.35 4.36,5.6 17.45,17.58 39.26,36 20.38,17.06 32.74,27.8 37.11,32.23 10.81,10.93 18.49,21.35 23.05,31.31 4.49,10.02 6.77,20.9 6.77,32.68 0,23.05 -7.94,41.99 -23.89,57.03 -15.88,14.98 -36.65,22.46 -62.3,22.46 -19.98,0 -37.37,-4.88 -52.21,-14.65 -14.85,-9.83 -27.61,-25.19 -38.15,-46.16l44.99 -27.08c13.54,24.74 29.1,37.11 46.68,37.11 9.18,0 16.93,-2.67 23.18,-8.01 6.25,-5.34 9.37,-11.52 9.37,-18.49 0,-6.32 -2.34,-12.7 -7.1,-19.08 -4.69,-6.32 -15.1,-16.08 -31.18,-29.16 -30.6,-24.87 -50.32,-44.07 -59.24,-57.62 -8.92,-13.54 -13.41,-27.02 -13.41,-40.49 0,-19.46 7.42,-36.13 22.2,-50 14.84,-13.93 33.13,-20.9 54.88,-20.9 14,0 27.34,3.25 39.97,9.7 12.7,6.51 26.37,18.29 41.14,35.48zm28.52 -38.15l155.07 0 0 52.73 -51.17 0 0 227.72 -54.3 0 0 -227.72 -49.61 0 0 -52.73zm323.62 -7.03c39.65,0 73.76,14.39 102.28,43.09 28.58,28.71 42.84,63.74 42.84,105.01 0,40.95 -14.06,75.58 -42.25,103.9 -28.12,28.32 -62.3,42.51 -102.47,42.51 -42.12,0 -77.08,-14.58 -104.88,-43.68 -27.86,-29.1 -41.79,-63.67 -41.79,-103.71 0,-26.76 6.51,-51.43 19.46,-73.95 12.96,-22.46 30.79,-40.3 53.45,-53.45 22.72,-13.15 47.2,-19.73 73.37,-19.73zm-0.78 52.34c-25.85,0 -47.59,9.05 -65.17,27.08 -17.64,18.03 -26.43,40.95 -26.43,68.81 0,30.99 11.07,55.53 33.26,73.56 17.25,14.13 36.98,21.16 59.31,21.16 25.19,0 46.68,-9.18 64.39,-27.47 17.77,-18.3 26.63,-40.82 26.63,-67.64 0,-26.69 -8.92,-49.28 -26.82,-67.77 -17.84,-18.49 -39.58,-27.73 -65.17,-27.73zm196.22 -45.31l56.7 0c30.66,0 52.73,2.8 66.27,8.46 13.54,5.66 24.28,14.85 32.09,27.48 7.81,12.63 11.72,27.8 11.72,45.51 0,19.6 -5.14,35.87 -15.43,48.82 -10.22,12.96 -24.15,22 -41.79,27.08 -10.35,2.93 -29.16,4.36 -56.44,4.36l0 118.74 -53.12 0 0 -280.46zm53.12 109.76l17.12 0c13.48,0 22.79,-0.98 28.06,-2.87 5.27,-1.95 9.37,-5.08 12.43,-9.5 2.99,-4.43 4.49,-9.76 4.49,-16.08 0,-10.87 -4.23,-18.81 -12.7,-23.76 -6.12,-3.71 -17.58,-5.6 -34.24,-5.6l-15.17 0 0 57.81z"/>
  <path class="fil5" d="M390.09 548.16l0 86.11c7.84,-7.79 16.33,-13.66 25.48,-17.58 9.14,-3.86 18.94,-5.83 29.34,-5.83 22.59,0 41.8,8.55 57.65,25.58 15.84,17.09 23.73,38.98 23.73,65.7 0,25.75 -8.16,47.3 -24.55,64.61 -16.33,17.36 -35.71,26.02 -58.14,26.02 -9.96,0 -19.27,-1.8 -27.87,-5.33 -8.6,-3.54 -17.15,-9.31 -25.64,-17.36l0 18.45 -43.44 0 0 -240.38 43.44 0zm45.61 102.55c-13.66,0 -25.04,4.68 -34.02,13.99 -9.04,9.36 -13.55,21.56 -13.55,36.63 0,15.4 4.52,27.87 13.55,37.34 8.98,9.53 20.36,14.26 34.02,14.26 13.28,0 24.44,-4.84 33.53,-14.48 9.09,-9.69 13.61,-21.99 13.61,-36.96 0,-14.86 -4.46,-27.05 -13.39,-36.52 -8.87,-9.53 -20.14,-14.26 -33.75,-14.26zm254.91 -35.6l43.44 0 0 173.42 -43.44 0 0 -18.45c-8.49,8.06 -17.04,13.83 -25.58,17.36 -8.55,3.54 -17.85,5.33 -27.82,5.33 -22.48,0 -41.86,-8.66 -58.24,-26.02 -16.38,-17.31 -24.55,-38.86 -24.55,-64.61 0,-26.73 7.95,-48.61 23.79,-65.7 15.84,-17.04 35.05,-25.58 57.7,-25.58 10.45,0 20.2,1.96 29.34,5.83 9.14,3.86 17.58,9.75 25.36,17.48l0 -19.05zm-45.78 35.6c-13.5,0 -24.71,4.73 -33.59,14.26 -8.93,9.47 -13.39,21.66 -13.39,36.52 0,14.97 4.52,27.27 13.61,36.96 9.09,9.63 20.25,14.48 33.53,14.48 13.66,0 25.04,-4.73 34.02,-14.26 9.04,-9.47 13.55,-21.94 13.55,-37.34 0,-15.08 -4.52,-27.27 -13.55,-36.63 -8.98,-9.31 -20.41,-13.99 -34.18,-13.99zm138.26 -99.61l43.44 0 0 64.01 25.8 0 0 37.56 -25.8 0 0 135.87 -43.44 0 0 -135.87 -22.21 0 0 -37.56 22.21 0 0 -64.01zm97.92 0l43.44 0 0 64.01 25.8 0 0 37.56 -25.8 0 0 135.87 -43.44 0 0 -135.87 -22.21 0 0 -37.56 22.21 0 0 -64.01zm88.12 -2.94l43.44 0 0 240.38 -43.44 0 0 -240.38zm256.43 165.91l-139.62 0c2.01,12.36 7.4,22.21 16.11,29.56 8.71,7.3 19.87,10.94 33.37,10.94 16.22,0 30.1,-5.71 41.75,-17.15l36.47 17.25c-9.09,12.96 -20.03,22.54 -32.72,28.8 -12.73,6.21 -27.82,9.31 -45.29,9.31 -27.11,0 -49.21,-8.55 -66.24,-25.69 -17.04,-17.09 -25.58,-38.54 -25.58,-64.28 0,-26.4 8.55,-48.34 25.58,-65.75 17.04,-17.48 38.37,-26.18 64.12,-26.18 27.27,0 49.48,8.71 66.57,26.07 17.09,17.42 25.64,40.34 25.64,68.91l-0.16 8.22zm-43.27 -33.97c-2.88,-9.47 -8.55,-17.2 -16.98,-23.13 -8.49,-5.93 -18.29,-8.87 -29.5,-8.87 -12.14,0 -22.75,3.32 -31.95,10.02 -5.72,4.14 -11.05,11.48 -15.95,21.99l94.39 0z"/>
  <path class="fil3" d="M1222.12 11.43c17.29,0 31.3,14.01 31.3,31.3 0,17.29 -14.01,31.3 -31.3,31.3 -17.29,0 -31.3,-14.01 -31.3,-31.3 0,-17.29 14.01,-31.3 31.3,-31.3z"/>
  <path class="fil3" d="M1222.18 951.12c17.08,0 30.92,13.84 30.92,30.93 0,17.08 -13.84,30.92 -30.92,30.92 -17.08,0 -30.93,-13.84 -30.93,-30.92 0,-17.08 13.84,-30.93 30.93,-30.93z"/>
 </g>
</svg>
